<?xml version="1.0" encoding="UTF-8" standalone="no"?>
<!-- Created with Inkscape (http://www.inkscape.org/) -->

<svg
   height="26"
   width="26"
   version="1.0"
   id="svg7"
   sodipodi:docname="Chess_Adt26.svg"
   xml:space="preserve"
   inkscape:version="1.3.2 (091e20e, 2023-11-25, custom)"
   xmlns:inkscape="http://www.inkscape.org/namespaces/inkscape"
   xmlns:sodipodi="http://sodipodi.sourceforge.net/DTD/sodipodi-0.dtd"
   xmlns:xlink="http://www.w3.org/1999/xlink"
   xmlns="http://www.w3.org/2000/svg"
   xmlns:svg="http://www.w3.org/2000/svg"
   xmlns:rdf="http://www.w3.org/1999/02/22-rdf-syntax-ns#"
   xmlns:cc="http://creativecommons.org/ns#"
   xmlns:dc="http://purl.org/dc/elements/1.1/"><defs
     id="defs7" /><sodipodi:namedview
     id="namedview7"
     pagecolor="#ffffff"
     bordercolor="#000000"
     borderopacity="0.25"
     inkscape:showpageshadow="2"
     inkscape:pageopacity="0.0"
     inkscape:pagecheckerboard="0"
     inkscape:deskcolor="#d1d1d1"
     inkscape:zoom="30.269231"
     inkscape:cx="19.756036"
     inkscape:cy="13"
     inkscape:window-width="1920"
     inkscape:window-height="991"
     inkscape:window-x="-9"
     inkscape:window-y="-9"
     inkscape:window-maximized="1"
     inkscape:current-layer="g7" /><metadata
     id="metadata1"><rdf:RDF><cc:Work
         rdf:about=""><dc:format>image/svg+xml</dc:format><dc:type
           rdf:resource="http://purl.org/dc/dcmitype/StillImage" /></cc:Work></rdf:RDF></metadata><g
     transform="matrix(0.75757574,0,0,0.75757574,2.8791515,-7.9393932)"
     id="g3"
     style="fill:#ffffff"><path
       stroke-linejoin="miter"
       d="m14.44,29.5c0.222,1.68-3.09,4.06-4.5,5-1.73,1.16-1.74,2.7-3,2.5-0.602-0.545,0.817-2.02,0-2-0.58,0,0.19,1.1-0.5,1.5-0.58,0-2.5,0.4-2.5-2.5,0-1.2,3.5-6.5,3.5-6.5s0.934-1.08,1-2c-0.419-0.575-0.258-1.48,0-2,0.365-0.731,1.5,1.5,1.5,1.5h1s0.5-1.5,1.5-2c0.517-0.258,0.5,2,0.5,2,6.07,0.578,9.29,4.37,9,16.5h-12.5c0-4.9,4.8-3.7,4.5-10.5"
       fill-rule="evenodd"
       stroke="#000"
       stroke-linecap="round"
       stroke-miterlimit="4"
       stroke-dasharray="none"
       stroke-width="1.31999993"
       fill="#FFF"
       id="path1"
       style="fill:#000000;stroke:#000000;stroke-opacity:1" /><path
       fill="#000"
       d="m9,23.5a0.5,0.5,0,1,1,-1,0,0.5,0.5,0,1,1,1,0z"
       transform="translate(-3.4999999,10)"
       id="path2"
       style="fill:#ffffff" /><path
       fill="#000"
       d="m9.6058,30.28a1.0281,1.4729,30,0,1,-1.7807,-1.028,1.0281,1.4729,30,0,1,1.7807,1.028z"
       id="path3"
       style="fill:#ffffff" /></g><g
     transform="translate(0,-4)"
     id="g7"
     style="fill:#000000"><path
       stroke-linejoin="round"
       d="m18,18,4-8-4,4,0-6-3,5.125-2-5-2,5l-3-5.125v6l-4-4,3,8s2.0349-2.5,6-2.5,5,2.5,5,2.5z"
       fill-rule="evenodd"
       stroke="#000"
       stroke-linecap="butt"
       stroke-miterlimit="4"
       stroke-dasharray="none"
       stroke-width="0.80000001"
       fill="#FFF"
       id="path4"
       style="fill:#000000;stroke:#ffffff;stroke-opacity:0" /><path
       id="path3804"
       stroke-linejoin="miter"
       d="m5.5,10a1.5,1.5,0,0,1,-3,0,1.5,1.5,0,1,1,3,0z"
       stroke-dashoffset="0"
       stroke="#000"
       stroke-linecap="butt"
       stroke-miterlimit="4"
       stroke-dasharray="none"
       stroke-width="0.75"
       fill="#FFF"
       style="fill:#000000;stroke:#000000;stroke-opacity:0" /><use
       xlink:href="#path3804"
       transform="translate(4,-2)"
       height="26"
       width="26"
       y="0"
       x="0"
       id="use4"
       style="fill:#000000;stroke:#ffffff;stroke-opacity:0" /><use
       xlink:href="#path3804"
       transform="translate(9,-2)"
       height="26"
       width="26"
       y="0"
       x="0"
       id="use5"
       style="fill:#000000;stroke:#ffffff;stroke-opacity:0" /><use
       xlink:href="#path3804"
       transform="matrix(-1,0,0,1,26,0)"
       height="26"
       width="26"
       y="0"
       x="0"
       id="use6"
       style="fill:#000000;fill-opacity:1;stroke:#ffffff;stroke-opacity:0"
       inkscape:label="use6" /><use
       xlink:href="#path3804"
       transform="matrix(-1,0,0,1,22,-2)"
       height="26"
       width="26"
       y="0"
       x="0"
       id="use7"
       style="fill:#000000;stroke:#ffffff;stroke-opacity:0"
       inkscape:label="use7" /></g><g
     style="opacity:1;fill:none;fill-opacity:1;fill-rule:evenodd;stroke:#000000;stroke-width:1.5;stroke-linecap:round;stroke-linejoin:round;stroke-miterlimit:4;stroke-dasharray:none;stroke-opacity:1"
     transform="matrix(0.42595017,0,0,0.4049578,21.776614,1.7202782)"
     id="g5"><path
       d="m -19.098389,24.758251 -0.468095,1.51504 0.520106,0.156728 c 3.276664,1.044856 5.87719,2.601691 8.217665,7.052775 2.3404742,4.451085 3.3806849,10.77246 2.8605796,21.158324 l -0.052011,0.522428 h 2.3404742 l 0.052011,-0.522428 C -5.1075539,44.129872 -6.5430447,37.035303 -9.0083441,32.343902 -11.473644,27.6525 -15.031165,25.406061 -18.567881,24.862736 Z"
       style="fill:#ffffff;stroke:none;stroke-width:1.5638"
       id="path5" /></g></svg>
